<svg width="1920" height="1191" viewBox="0 0 1920 1191" fill="none" xmlns="http://www.w3.org/2000/svg">
<g clip-path="url(#clip0_4_2495)">
<ellipse opacity="0.1" cx="960" cy="746.5" rx="1059" ry="1058.5" fill="white" stroke="#F7F8FC" stroke-width="3" stroke-miterlimit="4.62023" stroke-linecap="round" stroke-dasharray="35 50 15 15"/>
<path opacity="0.1" d="M1936.5 746.5C1936.5 1285.53 1499.31 1722.5 960 1722.5C420.693 1722.5 -16.5 1285.53 -16.5 746.5C-16.5 207.471 420.693 -229.5 960 -229.5C1499.31 -229.5 1936.5 207.471 1936.5 746.5Z" fill="white" stroke="#F7F8FC" stroke-width="3"/>
<ellipse opacity="0.2" cx="960" cy="746.5" rx="896" ry="895.5" fill="white" stroke="#F7F8FC" stroke-width="3" stroke-miterlimit="4.62023" stroke-linecap="round" stroke-dasharray="35 50 15 15"/>
<path opacity="0.3" d="M1774.5 746.5C1774.5 1196.06 1409.84 1560.5 960 1560.5C510.163 1560.5 145.5 1196.06 145.5 746.5C145.5 296.941 510.163 -67.5 960 -67.5C1409.84 -67.5 1774.5 296.941 1774.5 746.5Z" fill="white" stroke="#F7F8FC" stroke-width="3"/>
<ellipse opacity="0.4" cx="960" cy="746.5" rx="734" ry="733.5" fill="white" stroke="#F7F8FC" stroke-width="3" stroke-miterlimit="4.62023" stroke-linecap="round" stroke-dasharray="35 50 15 15"/>
<path opacity="0.5" d="M1609.5 746.5C1609.5 1104.93 1318.71 1395.5 960 1395.5C601.29 1395.5 310.5 1104.93 310.5 746.5C310.5 388.068 601.29 97.5 960 97.5C1318.71 97.5 1609.5 388.068 1609.5 746.5Z" fill="white" stroke="#F7F8FC" stroke-width="3"/>
<path opacity="0.6" d="M1530.5 746.5C1530.5 1061.3 1275.08 1316.5 960 1316.5C644.92 1316.5 389.5 1061.3 389.5 746.5C389.5 431.699 644.92 176.5 960 176.5C1275.08 176.5 1530.5 431.699 1530.5 746.5Z" fill="white" stroke="#F7F8FC" stroke-width="3"/>
<ellipse opacity="0.7" cx="960" cy="746.5" rx="495" ry="494.5" fill="white" stroke="#F7F8FC" stroke-width="3" stroke-miterlimit="4.62023" stroke-linecap="round" stroke-dasharray="35 50 15 15"/>
<path opacity="0.8" d="M1367.5 746.5C1367.5 971.278 1185.06 1153.5 960 1153.5C734.942 1153.5 552.5 971.278 552.5 746.5C552.5 521.722 734.942 339.5 960 339.5C1185.06 339.5 1367.5 521.722 1367.5 746.5Z" fill="white" stroke="#F7F8FC" stroke-width="3"/>
<ellipse opacity="0.9" cx="960" cy="746.5" rx="315" ry="314.5" fill="white" stroke="#F7F8FC" stroke-width="3" stroke-miterlimit="4.62023" stroke-linecap="round" stroke-dasharray="35 50 15 15"/>
<path d="M1183.5 746.5C1183.5 869.656 1083.44 969.5 960 969.5C836.561 969.5 736.5 869.656 736.5 746.5C736.5 623.344 836.561 523.5 960 523.5C1083.44 523.5 1183.5 623.344 1183.5 746.5Z" fill="white" stroke="#F7F8FC" stroke-width="3"/>
<ellipse cx="960" cy="746.5" rx="151" ry="150.5" fill="white" stroke="#F7F8FC" stroke-width="3" stroke-miterlimit="4.62023" stroke-linecap="round" stroke-dasharray="35 50 15 15"/>
</g>
<defs>
<clipPath id="clip0_4_2495">
<rect width="1920" height="1191" fill="white"/>
</clipPath>
</defs>
</svg>
